<svg xmlns="http://www.w3.org/2000/svg" role="img" viewBox="0 0 232 37" width="200" height="100" fill="#52525c"><title>BestColleges.com Logo</title><path d="M0 3.41602V36.3927H16.5987C22.1165 36.3927 26.5895 31.9148 26.5895 26.3911C26.5895 23.0432 24.9463 20.0795 22.4233 18.2641C23.327 16.7834 23.8477 15.0429 23.8477 13.1807C23.8477 7.7878 19.4807 3.41602 14.0936 3.41602H0Z"></path><path d="M44.0855 4.50474L39.6743 7.80162C38.9157 6.78291 37.7038 6.12335 36.3382 6.12335C34.0402 6.12335 32.1773 7.99109 32.1773 10.2951C32.1773 12.599 34.0402 14.4668 36.3382 14.4668C37.7038 14.4668 38.9157 13.8072 39.6743 12.7885L44.0855 16.0854C42.3237 18.4511 39.5093 19.9827 36.3382 19.9827C31.0018 19.9827 26.6758 15.6454 26.6758 10.2951C26.6758 4.94473 31.0018 0.607422 36.3382 0.607422C39.5093 0.607422 42.3237 2.13906 44.0855 4.50474Z"></path><path d="M125.738 30.1146C124.292 30.1146 122.97 29.8672 121.771 29.3726C120.573 28.878 119.536 28.1741 118.661 27.2609C117.785 26.3287 117.101 25.2348 116.606 23.9792C116.13 22.7046 115.893 21.3159 115.893 19.8129C115.893 18.3671 116.149 17.0259 116.663 15.7893C117.177 14.5527 117.89 13.4684 118.803 12.5362C119.716 11.604 120.782 10.8811 121.999 10.3674C123.217 9.85375 124.539 9.59692 125.966 9.59692C126.936 9.59692 127.878 9.7396 128.791 10.025C129.704 10.3103 130.541 10.7098 131.302 11.2235C132.063 11.7181 132.7 12.2984 133.214 12.9642L130.846 15.561C130.351 15.0474 129.837 14.6193 129.305 14.2769C128.791 13.9154 128.249 13.6491 127.678 13.4779C127.126 13.2876 126.556 13.1925 125.966 13.1925C125.091 13.1925 124.263 13.3542 123.483 13.6776C122.722 14.001 122.056 14.4576 121.486 15.0474C120.934 15.6371 120.496 16.341 120.173 17.1591C119.85 17.9581 119.688 18.8522 119.688 19.8415C119.688 20.8498 119.84 21.7629 120.144 22.581C120.468 23.399 120.915 24.1029 121.486 24.6927C122.075 25.2824 122.77 25.739 123.569 26.0624C124.387 26.3668 125.281 26.519 126.251 26.519C126.879 26.519 127.488 26.4334 128.078 26.2622C128.667 26.0909 129.21 25.8531 129.704 25.5487C130.218 25.2253 130.684 24.8544 131.102 24.4358L132.929 27.3751C132.472 27.8887 131.863 28.3548 131.102 28.7734C130.341 29.1919 129.485 29.5248 128.534 29.7721C127.602 30.0004 126.67 30.1146 125.738 30.1146Z"></path><path d="M143.019 30.1146C141.516 30.1146 140.175 29.7816 138.995 29.1158C137.816 28.4309 136.884 27.4987 136.199 26.3192C135.514 25.1397 135.172 23.7985 135.172 22.2956C135.172 20.7927 135.514 19.4515 136.199 18.272C136.884 17.0925 137.816 16.1698 138.995 15.5039C140.175 14.8191 141.516 14.4766 143.019 14.4766C144.503 14.4766 145.835 14.8191 147.014 15.5039C148.194 16.1698 149.116 17.0925 149.782 18.272C150.467 19.4515 150.809 20.7927 150.809 22.2956C150.809 23.7985 150.467 25.1397 149.782 26.3192C149.116 27.4987 148.194 28.4309 147.014 29.1158C145.835 29.7816 144.503 30.1146 143.019 30.1146ZM143.019 27.0041C143.837 27.0041 144.56 26.7948 145.188 26.3763C145.835 25.9578 146.339 25.3966 146.7 24.6927C147.081 23.9888 147.261 23.1897 147.242 22.2956C147.261 21.3824 147.081 20.5739 146.7 19.87C146.339 19.1661 145.835 18.6144 145.188 18.2149C144.56 17.7964 143.837 17.5871 143.019 17.5871C142.201 17.5871 141.459 17.7964 140.793 18.2149C140.146 18.6144 139.642 19.1756 139.281 19.8985C138.919 20.6024 138.739 21.4015 138.739 22.2956C138.739 23.1897 138.919 23.9888 139.281 24.6927C139.642 25.3966 140.146 25.9578 140.793 26.3763C141.459 26.7948 142.201 27.0041 143.019 27.0041Z"></path><path d="M153.978 29.8292V9.88424H157.516V29.8292H153.978Z"></path><path d="M161.669 29.8292V9.88424H165.208V29.8292H161.669Z"></path><path d="M176.102 30.1146C174.523 30.1146 173.125 29.7816 171.907 29.1158C170.708 28.4499 169.767 27.5463 169.082 26.4048C168.416 25.2444 168.083 23.9222 168.083 22.4383C168.083 21.2588 168.273 20.1839 168.654 19.2137C169.034 18.2434 169.557 17.4064 170.223 16.7025C170.908 15.9796 171.717 15.4279 172.649 15.0474C173.6 14.6479 174.637 14.4481 175.759 14.4481C176.749 14.4481 177.671 14.6383 178.527 15.0188C179.384 15.3993 180.125 15.9225 180.753 16.5883C181.381 17.2352 181.857 18.0151 182.18 18.9283C182.523 19.8224 182.684 20.8022 182.665 21.8676L182.637 23.0946H170.452L169.795 20.6976H179.697L179.241 21.1827V20.5549C179.184 19.9651 178.994 19.4515 178.67 19.0139C178.347 18.5573 177.928 18.2054 177.415 17.9581C176.92 17.6917 176.368 17.5586 175.759 17.5586C174.827 17.5586 174.038 17.7393 173.391 18.1008C172.763 18.4622 172.287 18.9854 171.964 19.6703C171.641 20.3361 171.479 21.1732 171.479 22.1815C171.479 23.1517 171.679 23.9983 172.078 24.7212C172.497 25.4441 173.077 26.0053 173.819 26.4048C174.58 26.7853 175.465 26.9756 176.473 26.9756C177.177 26.9756 177.824 26.8614 178.413 26.6331C179.003 26.4048 179.64 25.9958 180.325 25.4061L182.066 27.8317C181.552 28.3073 180.963 28.7163 180.297 29.0587C179.65 29.3821 178.965 29.639 178.242 29.8292C177.519 30.0194 176.806 30.1146 176.102 30.1146Z"></path><path d="M192.837 36.3926C191.715 36.3926 190.592 36.2213 189.47 35.8789C188.366 35.5365 187.472 35.0894 186.787 34.5377L188.043 31.9409C188.443 32.2263 188.89 32.4736 189.384 32.6828C189.879 32.8921 190.402 33.0538 190.954 33.1679C191.524 33.2821 192.086 33.3392 192.637 33.3392C193.646 33.3392 194.483 33.1775 195.149 32.854C195.833 32.5497 196.347 32.0741 196.69 31.4272C197.032 30.7994 197.203 30.0099 197.203 29.0587V26.2907L197.717 26.4904C197.603 27.0802 197.289 27.6414 196.775 28.1741C196.261 28.7068 195.615 29.1443 194.835 29.4868C194.055 29.8102 193.256 29.9719 192.438 29.9719C191.011 29.9719 189.746 29.639 188.642 28.9731C187.558 28.3073 186.692 27.4036 186.045 26.2622C185.418 25.1017 185.104 23.77 185.104 22.2671C185.104 20.7641 185.418 19.4325 186.045 18.272C186.673 17.0925 187.529 16.1698 188.614 15.5039C189.717 14.8191 190.954 14.4766 192.323 14.4766C192.894 14.4766 193.446 14.5432 193.979 14.6764C194.511 14.8096 194.996 14.9998 195.434 15.2471C195.891 15.4944 196.3 15.7703 196.661 16.0747C197.022 16.3791 197.317 16.7025 197.546 17.0449C197.774 17.3873 197.917 17.7203 197.974 18.0437L197.232 18.272L197.289 14.7905H200.742V28.8019C200.742 30.0194 200.561 31.0943 200.2 32.0265C199.838 32.9587 199.315 33.7482 198.63 34.395C197.945 35.0609 197.118 35.5555 196.147 35.8789C195.177 36.2213 194.074 36.3926 192.837 36.3926ZM192.98 26.9756C193.836 26.9756 194.587 26.7758 195.234 26.3763C195.9 25.9768 196.414 25.4251 196.775 24.7212C197.137 24.0173 197.317 23.2088 197.317 22.2956C197.317 21.3634 197.127 20.5454 196.747 19.8415C196.385 19.1186 195.881 18.5573 195.234 18.1578C194.587 17.7583 193.836 17.5586 192.98 17.5586C192.124 17.5586 191.372 17.7678 190.725 18.1864C190.079 18.5859 189.565 19.1471 189.184 19.87C188.823 20.5739 188.642 21.3824 188.642 22.2956C188.642 23.1897 188.823 23.9983 189.184 24.7212C189.565 25.4251 190.079 25.9768 190.725 26.3763C191.372 26.7758 192.124 26.9756 192.98 26.9756Z"></path><path d="M211.41 30.1146C209.831 30.1146 208.433 29.7816 207.215 29.1158C206.017 28.4499 205.075 27.5463 204.39 26.4048C203.724 25.2444 203.391 23.9222 203.391 22.4383C203.391 21.2588 203.582 20.1839 203.962 19.2137C204.343 18.2434 204.866 17.4064 205.532 16.7025C206.216 15.9796 207.025 15.4279 207.957 15.0474C208.908 14.6479 209.945 14.4481 211.068 14.4481C212.057 14.4481 212.98 14.6383 213.836 15.0188C214.692 15.3993 215.434 15.9225 216.061 16.5883C216.689 17.2352 217.165 18.0151 217.488 18.9283C217.831 19.8224 217.992 20.8022 217.973 21.8676L217.945 23.0946H205.76L205.103 20.6976H215.006L214.549 21.1827V20.5549C214.492 19.9651 214.302 19.4515 213.978 19.0139C213.655 18.5573 213.236 18.2054 212.723 17.9581C212.228 17.6917 211.676 17.5586 211.068 17.5586C210.135 17.5586 209.346 17.7393 208.699 18.1008C208.071 18.4622 207.596 18.9854 207.272 19.6703C206.949 20.3361 206.787 21.1732 206.787 22.1815C206.787 23.1517 206.987 23.9983 207.386 24.7212C207.805 25.4441 208.385 26.0053 209.127 26.4048C209.888 26.7853 210.773 26.9756 211.781 26.9756C212.485 26.9756 213.132 26.8614 213.721 26.6331C214.311 26.4048 214.949 25.9958 215.633 25.4061L217.374 27.8317C216.86 28.3073 216.271 28.7163 215.605 29.0587C214.958 29.3821 214.273 29.639 213.55 29.8292C212.827 30.0194 212.114 30.1146 211.41 30.1146Z"></path><path d="M226.104 30.1146C224.773 30.1146 223.574 29.8958 222.509 29.4582C221.463 29.0016 220.606 28.3548 219.941 27.5178L222.223 25.5487C222.794 26.1956 223.432 26.6617 224.135 26.947C224.839 27.2324 225.581 27.3751 226.361 27.3751C226.685 27.3751 226.97 27.337 227.217 27.2609C227.484 27.1848 227.712 27.0707 227.902 26.9185C228.092 26.7663 228.235 26.5951 228.33 26.4048C228.444 26.1956 228.501 25.9673 228.501 25.72C228.501 25.2634 228.33 24.9019 227.988 24.6356C227.798 24.5024 227.493 24.3597 227.075 24.2075C226.675 24.0553 226.152 23.9031 225.505 23.751C224.478 23.4846 223.622 23.1802 222.937 22.8378C222.252 22.4763 221.719 22.0768 221.339 21.6393C221.015 21.2778 220.768 20.8688 220.597 20.4122C220.445 19.9556 220.369 19.461 220.369 18.9283C220.369 18.2625 220.511 17.6632 220.797 17.1305C221.101 16.5788 221.51 16.1032 222.024 15.7037C222.537 15.3042 223.137 14.9998 223.822 14.7905C224.506 14.5813 225.22 14.4766 225.962 14.4766C226.723 14.4766 227.455 14.5718 228.159 14.762C228.882 14.9522 229.548 15.2281 230.157 15.5896C230.784 15.932 231.317 16.3505 231.755 16.8452L229.814 18.9854C229.453 18.6429 229.053 18.3386 228.616 18.0722C228.197 17.8059 227.769 17.5966 227.332 17.4444C226.894 17.2732 226.485 17.1876 226.104 17.1876C225.743 17.1876 225.42 17.2256 225.134 17.3017C224.849 17.3588 224.611 17.4539 224.421 17.5871C224.231 17.7203 224.078 17.8915 223.964 18.1008C223.869 18.291 223.822 18.5193 223.822 18.7856C223.841 19.0139 223.898 19.2327 223.993 19.442C224.107 19.6322 224.259 19.7939 224.449 19.9271C224.659 20.0603 224.972 20.2124 225.391 20.3837C225.81 20.5549 226.352 20.7166 227.018 20.8688C227.95 21.1161 228.73 21.3919 229.358 21.6963C229.985 22.0007 230.48 22.3527 230.841 22.7522C231.203 23.0946 231.46 23.4941 231.612 23.9507C231.764 24.4073 231.84 24.9114 231.84 25.4631C231.84 26.3573 231.583 27.1563 231.07 27.8602C230.575 28.5641 229.89 29.1158 229.015 29.5153C228.159 29.9148 227.189 30.1146 226.104 30.1146Z"></path><path d="M55.0974 29.8292V9.85376H63.6012C64.9139 9.85376 66.0173 10.044 66.9115 10.4245C67.8246 10.805 68.5095 11.3757 68.9661 12.1367C69.4417 12.8786 69.6795 13.7823 69.6795 14.8476C69.6795 15.951 69.3846 16.8832 68.7949 17.6442C68.2051 18.4052 67.3776 18.9283 66.3122 19.2137L66.2837 18.643C67.1778 18.8332 67.9578 19.1756 68.6236 19.6703C69.2895 20.1459 69.8031 20.7451 70.1646 21.4681C70.5451 22.172 70.7353 22.9805 70.7353 23.8936C70.7353 24.8639 70.5736 25.72 70.2502 26.4619C69.9458 27.2039 69.4892 27.8222 68.8805 28.3168C68.2717 28.8114 67.5488 29.1919 66.7117 29.4582C65.8746 29.7056 64.9329 29.8292 63.8866 29.8292H55.0974ZM58.7215 26.4905H63.7154C64.4193 26.4905 65.009 26.3858 65.4846 26.1766C65.9793 25.9673 66.3502 25.6629 66.5976 25.2634C66.8639 24.8449 66.9971 24.3502 66.9971 23.7795C66.9971 23.2468 66.8544 22.7902 66.569 22.4098C66.3027 22.0293 65.9127 21.7439 65.399 21.5537C64.8854 21.3444 64.2766 21.2398 63.5727 21.2398H58.7215V26.4905ZM58.7215 18.0437H63.2588C63.8105 18.0437 64.2861 17.9391 64.6856 17.7298C65.1042 17.5205 65.4276 17.2352 65.6559 16.8737C65.8842 16.5122 65.9983 16.0937 65.9983 15.6181C65.9983 14.8571 65.7415 14.2674 65.2278 13.8489C64.7142 13.4113 63.9627 13.1925 62.9734 13.1925H58.7215V18.0437Z"></path><path d="M81.1368 30.1146C79.5578 30.1146 78.1595 29.7816 76.942 29.1158C75.7435 28.45 74.8018 27.5463 74.1169 26.4048C73.451 25.2444 73.1181 23.9222 73.1181 22.4383C73.1181 21.2588 73.3084 20.1839 73.6888 19.2137C74.0693 18.2434 74.5925 17.4064 75.2583 16.7025C75.9432 15.9796 76.7517 15.4279 77.6839 15.0474C78.6351 14.6479 79.672 14.4481 80.7944 14.4481C81.7837 14.4481 82.7063 14.6384 83.5624 15.0188C84.4185 15.3993 85.1605 15.9225 85.7883 16.5883C86.4161 17.2352 86.8917 18.0152 87.2151 18.9283C87.5575 19.8225 87.7192 20.8022 87.7002 21.8676L87.6717 23.0946H75.4866L74.8303 20.6976H84.7324L84.2758 21.1827V20.5549C84.2188 19.9651 84.0285 19.4515 83.7051 19.0139C83.3817 18.5573 82.9632 18.2054 82.4495 17.9581C81.9549 17.6917 81.4032 17.5586 80.7944 17.5586C79.8622 17.5586 79.0727 17.7393 78.4259 18.1008C77.7981 18.4622 77.3225 18.9854 76.9991 19.6703C76.6757 20.3361 76.5139 21.1732 76.5139 22.1815C76.5139 23.1517 76.7137 23.9983 77.1132 24.7212C77.5317 25.4441 78.112 26.0053 78.8539 26.4048C79.6149 26.7853 80.4995 26.9756 81.5078 26.9756C82.2117 26.9756 82.8585 26.8614 83.4483 26.6331C84.038 26.4048 84.6753 25.9958 85.3602 25.4061L87.1009 27.8317C86.5873 28.3073 85.9975 28.7163 85.3317 29.0587C84.6849 29.3821 84 29.639 83.2771 29.8292C82.5541 30.0195 81.8407 30.1146 81.1368 30.1146Z"></path><path d="M95.8313 30.1146C94.4996 30.1146 93.301 29.8958 92.2357 29.4582C91.1894 29.0017 90.3333 28.3548 89.6674 27.5178L91.9503 25.5488C92.5211 26.1956 93.1584 26.6617 93.8623 26.947C94.5662 27.2324 95.3081 27.3751 96.0881 27.3751C96.4115 27.3751 96.6969 27.337 96.9442 27.2609C97.2105 27.1848 97.4388 27.0707 97.6291 26.9185C97.8193 26.7663 97.962 26.5951 98.0571 26.4048C98.1713 26.1956 98.2283 25.9673 98.2283 25.72C98.2283 25.2634 98.0571 24.9019 97.7147 24.6356C97.5244 24.5024 97.22 24.3597 96.8015 24.2075C96.402 24.0554 95.8788 23.9032 95.232 23.751C94.2047 23.4846 93.3486 23.1802 92.6637 22.8378C91.9789 22.4763 91.4462 22.0768 91.0657 21.6393C90.7423 21.2778 90.495 20.8688 90.3238 20.4122C90.1716 19.9556 90.0955 19.461 90.0955 18.9283C90.0955 18.2625 90.2381 17.6632 90.5235 17.1305C90.8279 16.5788 91.2369 16.1032 91.7506 15.7037C92.2642 15.3042 92.8635 14.9998 93.5484 14.7906C94.2332 14.5813 94.9466 14.4766 95.6886 14.4766C96.4496 14.4766 97.182 14.5718 97.8859 14.762C98.6088 14.9523 99.2747 15.2281 99.8834 15.5896C100.511 15.932 101.044 16.3505 101.481 16.8452L99.541 18.9854C99.1795 18.643 98.78 18.3386 98.3425 18.0722C97.9239 17.8059 97.4959 17.5966 97.0583 17.4444C96.6208 17.2732 96.2118 17.1876 95.8313 17.1876C95.4698 17.1876 95.1464 17.2257 94.861 17.3017C94.5757 17.3588 94.3379 17.4539 94.1476 17.5871C93.9574 17.7203 93.8052 17.8915 93.691 18.1008C93.5959 18.291 93.5484 18.5193 93.5484 18.7856C93.5674 19.0139 93.6245 19.2327 93.7196 19.442C93.8337 19.6322 93.9859 19.7939 94.1762 19.9271C94.3854 20.0603 94.6993 20.2125 95.1179 20.3837C95.5364 20.5549 96.0786 20.7166 96.7444 20.8688C97.6766 21.1161 98.4566 21.392 99.0844 21.6963C99.7122 22.0007 100.207 22.3527 100.568 22.7522C100.93 23.0946 101.187 23.4941 101.339 23.9507C101.491 24.4073 101.567 24.9114 101.567 25.4631C101.567 26.3573 101.31 27.1563 100.797 27.8602C100.302 28.5641 99.6171 29.1158 98.742 29.5153C97.8859 29.9148 96.9157 30.1146 95.8313 30.1146Z"></path><path d="M106.286 29.8292V10.9667H109.796V29.8292H106.286ZM103.318 18.0437V14.7906H113.077V18.0437H103.318Z"></path></svg>