<svg xmlns="http://www.w3.org/2000/svg" role="img" viewBox="0 0 198 33" width="200" height="100" fill="none">
  <title>NurseJournal Logo</title>
  <path fill-rule="evenodd" clip-rule="evenodd" d="M106.231 14.5805C105.301 14.5132 104.44 14.8836 103.855 15.5907C103.235 16.4326 102.891 17.4768 102.856 18.5203H108.469C108.745 18.554 108.917 18.4193 108.917 18.1836C108.951 17.7795 108.917 17.3754 108.814 17.005C108.71 16.6009 108.538 16.2305 108.331 15.8601C108.125 15.5234 107.815 15.2203 107.471 14.9846C107.092 14.7489 106.679 14.6142 106.231 14.5805ZM110.535 23.6724C110.639 23.538 110.811 23.4703 110.983 23.504C111.19 23.504 111.362 23.6724 111.534 24.0091C111.224 24.3458 110.914 24.6826 110.57 24.9856C110.191 25.3224 109.778 25.5918 109.33 25.7938C108.814 26.0635 108.263 26.2319 107.712 26.3326C107.023 26.4673 106.334 26.5009 105.646 26.4673C104.888 26.4336 104.13 26.2652 103.407 25.9622C102.719 25.6928 102.099 25.255 101.617 24.7166C101.066 24.1438 100.653 23.4367 100.411 22.6962C100.102 21.8203 99.9638 20.8775 100.067 19.9683C100.102 19.0254 100.343 18.1163 100.79 17.2744C101.169 16.4999 101.72 15.7928 102.409 15.2203C103.029 14.6816 103.717 14.2438 104.509 13.9407C105.198 13.6714 105.921 13.5367 106.679 13.5703C108.504 13.6714 109.812 14.2438 110.604 15.3214C111.396 16.3989 111.74 17.8135 111.637 19.4972C111.637 19.5979 111.568 19.6656 111.465 19.6316H102.856C102.822 20.339 102.891 21.0458 103.097 21.7193C103.27 22.3254 103.545 22.8979 103.924 23.403C104.268 23.9081 104.75 24.3122 105.301 24.5816C105.887 24.885 106.506 25.0533 107.161 25.0533C107.815 25.0867 108.435 24.9856 109.02 24.7166C109.606 24.4805 110.122 24.1101 110.535 23.6724Z" fill="#52525c"></path>
  <path fill-rule="evenodd" clip-rule="evenodd" d="M123.999 18.5539C123.896 19.2947 123.862 20.0356 123.931 20.7767C123.965 21.4835 124.103 22.2243 124.344 22.8978C124.585 23.5039 124.929 24.0764 125.412 24.5481C125.893 25.0192 126.513 25.3226 127.167 25.39C128.166 25.5584 129.199 25.255 129.922 24.5815C130.68 23.8073 131.162 22.8305 131.265 21.7529C131.368 20.9784 131.403 20.2376 131.368 19.4631C131.3 18.7223 131.162 17.9818 130.955 17.2743C130.749 16.6009 130.37 15.9947 129.888 15.4896C129.406 14.9845 128.752 14.6815 128.063 14.6141C127.099 14.4458 126.134 14.7155 125.412 15.3213C124.654 15.9611 124.206 17.005 123.999 18.5539ZM121.107 19.1264C121.21 18.2845 121.486 17.4427 121.933 16.7019C122.381 15.9947 122.966 15.355 123.621 14.8498C124.309 14.3447 125.067 13.9743 125.893 13.7386C126.754 13.5369 127.65 13.4692 128.545 13.6039C129.44 13.7053 130.335 13.9743 131.127 14.4121C131.851 14.8162 132.471 15.355 132.987 15.9947C133.504 16.6349 133.882 17.3754 134.089 18.1835C134.295 19.059 134.33 19.9682 134.192 20.8774C134.089 21.7529 133.779 22.5611 133.332 23.3022C132.918 24.009 132.333 24.6492 131.679 25.1543C130.99 25.6594 130.232 26.0294 129.406 26.2652C128.545 26.4672 127.65 26.5345 126.754 26.4002C125.859 26.2988 124.964 26.0294 124.172 25.5917C123.448 25.1876 122.794 24.6492 122.278 24.009C121.761 23.3696 121.417 22.6288 121.21 21.8203C121.004 20.9451 120.969 20.0356 121.107 19.1264Z" fill="#52525c"></path>
  <path fill-rule="evenodd" clip-rule="evenodd" d="M185.758 19.549L184.855 19.68L183.382 20.007C182.948 20.138 182.512 20.3343 182.111 20.5636C181.743 20.7922 181.442 21.0869 181.241 21.4472C181.006 21.8398 180.873 22.3304 180.906 22.7887C180.873 23.3777 181.074 23.9666 181.475 24.4246C181.843 24.7849 182.345 24.9812 182.881 24.9812C183.249 24.9812 183.617 24.8829 183.951 24.7192C184.319 24.5886 184.654 24.3593 184.889 24.065C185.156 23.7373 185.357 23.4103 185.524 23.0177C185.692 22.6251 185.758 22.1668 185.758 21.7415V19.549ZM190.142 25.0465C190.376 25.0465 190.477 25.2429 190.51 25.6355C189.941 25.9958 189.272 26.1591 188.603 26.1264C188.235 26.1264 187.867 26.0611 187.499 25.9628C187.197 25.8318 186.93 25.6685 186.695 25.4392C186.495 25.2429 186.327 25.0139 186.193 24.7519C186.093 24.4903 186.026 24.1959 185.959 23.934C185.591 24.6866 184.989 25.2759 184.253 25.6685C183.55 25.9628 182.747 26.1264 181.977 26.1264L180.739 26.0281C180.304 25.9628 179.902 25.8318 179.501 25.6355C179.133 25.4068 178.798 25.1122 178.563 24.7519C178.296 24.2939 178.162 23.7703 178.196 23.2467C178.162 22.6251 178.363 22.0031 178.697 21.4795C179.032 21.0215 179.501 20.5959 180.003 20.3016C180.538 20.007 181.107 19.7453 181.709 19.549L183.516 19.091L184.42 18.8944L185.156 18.6981C185.357 18.6654 185.524 18.5344 185.658 18.3708C185.725 18.1418 185.792 17.8802 185.758 17.6182C185.792 16.8656 185.624 16.113 185.256 15.4257C184.889 14.8694 184.286 14.5748 183.416 14.5748C183.148 14.5748 182.847 14.6074 182.579 14.6731C182.345 14.7384 182.144 14.8694 181.977 15.0331C181.809 15.2294 181.676 15.4257 181.576 15.6547L181.241 16.6036C181.174 16.8002 181.04 16.9636 180.839 17.0619L179.835 17.3892L179.4 17.4872C179.266 17.5525 179.099 17.5525 178.965 17.5525C178.764 17.5525 178.664 17.3562 178.664 16.9636C178.664 16.5056 178.865 16.0803 179.166 15.72C179.534 15.2947 179.936 14.9347 180.438 14.6401C180.94 14.3131 181.509 14.0511 182.077 13.8548C182.613 13.6585 183.215 13.5602 183.784 13.5602C184.387 13.5602 184.989 13.6258 185.591 13.7242C186.093 13.8222 186.595 14.0511 186.997 14.3458C187.398 14.6731 187.7 15.0984 187.9 15.5567C188.134 16.1783 188.235 16.8656 188.201 17.5202V22.3958C188.168 22.8541 188.201 23.3447 188.268 23.8033C188.302 24.032 188.369 24.2613 188.469 24.4903C188.569 24.7192 188.737 24.8829 188.937 25.0139C189.105 25.1122 189.272 25.1449 189.439 25.1449L189.874 25.0795L190.142 25.0465Z" fill="#52525c"></path>
  <path fill-rule="evenodd" clip-rule="evenodd" d="M56.5076 7.2735C56.5076 7.40819 56.4732 7.50921 56.4732 7.57656C56.4732 7.64391 56.6109 8.04799 56.8175 8.08166C57.3685 8.11534 57.885 8.25003 58.4015 8.48574C58.7459 8.65411 58.918 9.02452 58.8836 9.39493V21.5174L48.2432 7.61023C48.1055 7.47554 47.9678 7.37452 47.7956 7.30717H43.5257C43.4912 7.40819 43.4912 7.47554 43.4912 7.57656C43.4912 7.87962 43.5946 8.04799 43.8356 8.08166C44.3177 8.11534 44.7998 8.25003 45.213 8.48574C45.454 8.65411 45.5918 8.9235 45.5573 9.19289V24.0766C45.5918 24.3796 45.454 24.7164 45.213 24.9184C44.7653 25.1204 44.2832 25.2888 43.7667 25.3562C43.5601 25.3898 43.3879 25.5919 43.4224 25.7939C43.4224 25.8949 43.4568 25.996 43.4568 26.1306H49.2763C49.3107 26.0296 49.3107 25.8949 49.3107 25.7939C49.3107 25.5245 49.2074 25.3898 49.0008 25.3562C48.4499 25.2888 47.9333 25.1204 47.4168 24.9184C47.1413 24.75 46.9692 24.4133 47.0036 24.0766V10.4388L59.0558 25.9623L59.1591 26.1306H60.2954V9.32758C60.261 8.99085 60.3987 8.68778 60.6742 8.48574C61.0874 8.25003 61.5695 8.11534 62.0516 8.08166C62.2238 8.04799 62.3271 7.87962 62.3271 7.57656C62.3271 7.47554 62.3271 7.37452 62.2926 7.2735H56.5076Z" fill="#52525c"></path>
  <mask id="mask0" mask-type="alpha" maskUnits="userSpaceOnUse" x="112" y="7" width="9" height="26">
    <path d="M112.36 7.2735H120.521V32.4949H112.36V7.2735Z" fill="white"></path>
  </mask>
  <g mask="url(#mask0)">
    <path fill-rule="evenodd" clip-rule="evenodd" d="M113.187 7.2735C113.187 7.40819 113.152 7.50921 113.152 7.57656C113.152 7.64391 113.256 8.04799 113.462 8.08166C114.013 8.11534 114.564 8.25003 115.081 8.48574C115.356 8.65411 115.528 8.99085 115.494 9.32758V24.7837C115.528 26.0296 115.287 27.2755 114.84 28.4204C114.254 29.599 113.462 30.6766 112.498 31.5521C112.429 31.6531 112.36 31.7541 112.36 31.8888C112.36 32.1245 112.533 32.3602 112.739 32.4949C113.772 31.8215 114.771 31.0806 115.666 30.2388C116.355 29.5653 116.906 28.8245 117.353 27.9827C117.767 27.1408 118.008 26.2653 118.111 25.3562C118.249 24.2113 118.317 23.0327 118.283 21.8878V9.32758C118.249 8.99085 118.421 8.65411 118.696 8.48574C119.178 8.25003 119.695 8.11534 120.211 8.08166C120.418 8.04799 120.521 7.87962 120.521 7.57656C120.521 7.47554 120.521 7.37452 120.487 7.2735H113.187Z" fill="#52525c"></path>
  </g>
  <path fill-rule="evenodd" clip-rule="evenodd" d="M88.6003 13.9744C88.256 13.6714 87.7739 13.5367 87.3262 13.5704C86.5342 13.5367 85.7767 13.7724 85.1569 14.2438C84.4337 14.7153 83.8139 15.2877 83.2285 15.9275V14.0755H78.6831C78.6487 14.2102 78.6143 14.3448 78.6143 14.4795C78.6143 14.7153 78.752 14.8163 79.0275 14.85C79.3374 14.8836 79.6129 14.951 79.8883 15.052C80.095 15.1193 80.2671 15.2204 80.4049 15.3887C80.5426 15.5908 80.6459 15.8265 80.6459 16.0622C80.7148 16.3989 80.7492 16.7357 80.7492 17.0724V24.4469C80.7148 24.75 80.5426 25.0193 80.2327 25.1204C79.8539 25.2887 79.4407 25.3898 79.0275 25.4571C78.8553 25.4908 78.7176 25.6255 78.752 25.7938C78.752 25.8949 78.752 26.0295 78.7864 26.1306H86.121C86.1555 26.0295 86.1555 25.8949 86.1555 25.7938C86.1555 25.6255 86.0522 25.4908 85.88 25.4571C85.1913 25.3898 84.537 25.2551 83.9172 24.9857C83.504 24.851 83.2285 24.4806 83.2285 24.0428V19.0591C83.2285 18.6214 83.2974 18.1836 83.4007 17.7459C83.504 17.3418 83.6417 16.9714 83.8483 16.6346C84.0549 16.3653 84.296 16.0959 84.5715 15.8938C84.8469 15.7255 85.1569 15.6244 85.4668 15.6244C85.7767 15.6244 86.0522 15.6918 86.2932 15.8602C86.5342 15.9948 86.7753 16.1969 86.9475 16.3989C87.3263 16.2306 87.705 16.0622 88.0494 15.8602L88.6692 15.4897C88.7725 15.4224 88.8758 15.3214 88.9447 15.1867C88.9791 15.0857 89.0135 14.951 89.0135 14.85C89.0135 14.5132 88.8414 14.2102 88.6003 13.9744Z" fill="#52525c"></path>
  <path fill-rule="evenodd" clip-rule="evenodd" d="M97.4156 20.0022C97.0368 19.6654 96.6236 19.4297 96.1759 19.2273C95.6594 18.992 95.1429 18.7896 94.5919 18.6212C93.7999 18.4195 93.0424 18.1161 92.3537 17.645C91.9749 17.3083 91.7683 16.8702 91.7683 16.3651C91.7683 15.8603 92.0093 15.3552 92.4225 15.0522C92.8702 14.7488 93.3867 14.5804 93.9377 14.5804C94.5919 14.5471 95.2806 14.7154 95.8316 15.0855C96.3825 15.4899 96.7269 16.0957 96.7958 16.7692C96.8302 16.8702 96.8646 16.9375 96.9335 17.0052C97.0368 17.0726 97.1401 17.1059 97.2779 17.1059H97.7599V14.4797C97.2434 14.2103 96.7269 13.9746 96.1759 13.8399C95.4528 13.6379 94.6952 13.5369 93.9377 13.5369C93.3523 13.5369 92.7669 13.6379 92.2159 13.8063C91.7338 13.9746 91.2862 14.2777 90.9074 14.6144C90.5286 14.9171 90.2531 15.3216 90.081 15.759C89.8744 16.1971 89.7711 16.7018 89.7711 17.1736C89.7711 18.2845 90.1154 19.093 90.7697 19.6654C91.5961 20.3049 92.5258 20.7427 93.5245 21.0124C94.282 21.2144 94.9707 21.5175 95.625 21.9212C96.0726 22.292 96.3481 22.8304 96.3137 23.4032C96.3481 23.9756 96.1071 24.5141 95.6594 24.8508C95.2462 25.2216 94.6264 25.3899 93.7999 25.3899C92.9735 25.3899 92.0093 25.1542 91.4584 24.6491C90.873 24.144 90.5286 23.4365 90.4942 22.696C90.4598 22.5614 90.3909 22.4263 90.2531 22.3593C90.081 22.292 89.9088 22.258 89.7366 22.258H89.5645V25.1202C89.5645 25.2552 89.5644 25.3899 89.5989 25.5243C90.2531 25.861 90.9763 26.1304 91.6994 26.2654C92.3881 26.4001 93.1112 26.4671 93.8344 26.4671C94.5575 26.4671 95.2462 26.3661 95.9349 26.1644C96.4514 25.962 96.9679 25.6927 97.3812 25.3226C97.7599 24.9518 98.0354 24.5481 98.242 24.0767C98.4142 23.6049 98.5175 23.1338 98.5175 22.6287C98.5175 22.0896 98.4142 21.5845 98.242 21.0794C98.0698 20.6756 97.7599 20.3049 97.4156 20.0022Z" fill="#52525c"></path>
  <path fill-rule="evenodd" clip-rule="evenodd" d="M77.3753 25.1202L76.5833 24.9859C76.4111 24.9182 76.2389 24.8175 76.1012 24.6825C75.9634 24.5481 75.8601 24.3797 75.8601 24.1774C75.7913 23.908 75.7568 23.6723 75.7913 23.4029V14.0753H71.3492C71.3147 14.2103 71.3148 14.311 71.3148 14.4457C71.3148 14.6814 71.4525 14.7825 71.6935 14.8498C71.9346 14.9172 72.8299 15.0522 73.0021 15.2876C73.1742 15.5233 73.312 15.9274 73.312 16.5335V20.7767C73.312 21.3491 73.2087 21.8876 72.9676 22.3927C72.761 22.8304 72.4855 23.2345 72.1068 23.5712C71.728 23.908 71.3147 24.144 70.8327 24.3124C70.385 24.4808 69.8685 24.5481 69.3864 24.5481C69.0076 24.5814 68.5944 24.4808 68.2501 24.3124C67.9401 24.144 67.6991 23.908 67.5614 23.6049C67.4236 23.2682 67.3203 22.9314 67.2514 22.561C67.1826 22.1236 67.1481 21.6518 67.1481 21.2141V14.0753H62.7749C62.7405 14.2103 62.7061 14.311 62.7061 14.4457C62.7061 14.6814 62.8438 14.7825 63.0848 14.8498C63.5669 14.8161 64.0146 14.9845 64.3934 15.2539C64.6 15.658 64.7033 16.0957 64.6688 16.5335V22.5947C64.6688 23.8073 64.9788 24.7835 65.5641 25.457C66.1495 26.1304 67.0793 26.4672 68.2845 26.4672C68.9388 26.4672 69.593 26.3328 70.1784 26.0634C70.7294 25.7937 71.2114 25.491 71.6935 25.1202C72.1067 24.8175 72.4511 24.4808 72.7954 24.11L73.312 23.5712V24.3124C73.312 25.2886 74.1384 26.0967 75.137 26.1304H77.7885V25.491C77.7885 25.2886 77.6508 25.1542 77.3753 25.1202Z" fill="#52525c"></path>
  <path fill-rule="evenodd" clip-rule="evenodd" d="M177.064 25.457C176.651 25.39 176.238 25.2886 175.859 25.1203C175.549 25.0192 175.343 24.7835 175.343 24.4808V17.4094C175.411 16.3992 175.067 15.355 174.447 14.5471C173.827 13.8737 172.932 13.5369 171.727 13.5369C170.831 13.5369 169.936 13.7723 169.179 14.2774C168.283 14.8839 167.457 15.6243 166.734 16.4325C166.734 15.9274 166.768 15.456 166.837 14.9509C166.871 14.6141 166.906 14.3111 166.906 14.0754H162.257C162.223 14.2104 162.188 14.3111 162.188 14.4458C162.188 14.6478 162.326 14.7825 162.567 14.8499C162.808 14.9172 163.738 15.0522 163.944 15.2876C164.186 15.658 164.289 16.0958 164.255 16.5335V24.4468C164.255 24.7835 164.014 25.0533 163.704 25.1203C163.325 25.2886 162.946 25.39 162.533 25.457C162.361 25.491 162.257 25.6254 162.257 25.7937C162.257 25.8951 162.257 26.0294 162.292 26.1305H168.593C168.628 26.0294 168.628 25.8951 168.628 25.7937C168.662 25.6254 168.524 25.491 168.352 25.457C167.974 25.39 167.595 25.255 167.25 25.1203C166.94 25.0192 166.734 24.7835 166.734 24.4808V19.1937C166.734 18.6553 166.837 18.0828 167.043 17.5777C167.25 17.14 167.56 16.7692 167.939 16.4325C168.283 16.0958 168.731 15.8601 169.179 15.6917C169.626 15.5233 170.143 15.456 170.625 15.456C171.003 15.4223 171.383 15.5233 171.727 15.6917C172.037 15.8601 172.278 16.0958 172.416 16.3992C172.588 16.7359 172.691 17.0726 172.76 17.4427C172.829 17.8805 172.863 18.3519 172.863 18.7896V24.4808C172.863 24.7835 172.657 25.0192 172.347 25.1203C171.968 25.2886 171.589 25.39 171.21 25.457C171.038 25.491 170.935 25.6254 170.935 25.7937C170.935 25.8951 170.969 25.9961 170.969 26.1305H177.305C177.305 25.9961 177.34 25.8951 177.34 25.7937C177.34 25.6254 177.237 25.491 177.064 25.457Z" fill="#52525c"></path>
  <path fill-rule="evenodd" clip-rule="evenodd" d="M149.963 25.1203C149.688 25.0866 149.412 25.0533 149.137 24.9859C148.965 24.9182 148.793 24.8176 148.655 24.6825C148.517 24.5482 148.414 24.3798 148.414 24.1774C148.379 23.908 148.345 23.6723 148.345 23.4029V14.0754H143.937C143.903 14.2104 143.868 14.3111 143.868 14.4458C143.868 14.6815 144.006 14.7825 144.247 14.8499C144.488 14.9172 145.384 15.0522 145.59 15.2876C145.797 15.658 145.9 16.0958 145.866 16.5335V20.7767C145.9 21.3492 145.762 21.8876 145.521 22.3927C145.349 22.8645 145.039 23.2682 144.66 23.5713C144.282 23.908 143.868 24.1441 143.386 24.3125C142.939 24.4808 142.422 24.5482 141.94 24.5482C141.561 24.5815 141.148 24.4808 140.804 24.3125C140.528 24.1441 140.287 23.908 140.15 23.605C139.977 23.2682 139.874 22.9315 139.805 22.5611C139.736 22.1237 139.736 21.6519 139.736 21.2142V14.0754H135.329C135.294 14.2104 135.26 14.3111 135.26 14.4458C135.26 14.6815 135.398 14.7825 135.673 14.8499C135.948 14.9172 136.775 15.0522 136.947 15.2539C137.154 15.658 137.257 16.0958 137.223 16.5335V22.5948C137.223 23.8074 137.532 24.7835 138.118 25.457C138.703 26.1305 139.633 26.4672 140.838 26.4672C141.492 26.4672 142.147 26.3329 142.732 26.0635C143.283 25.7937 143.8 25.491 144.282 25.1203C144.66 24.8176 145.039 24.4808 145.349 24.1101L145.866 23.5713V24.3125C145.866 25.3227 146.692 26.1305 147.725 26.1305H150.342V25.491C150.342 25.2886 150.204 25.1543 149.963 25.1203Z" fill="#52525c"></path>
  <path fill-rule="evenodd" clip-rule="evenodd" d="M161.052 13.9745C160.707 13.6714 160.225 13.5367 159.777 13.5704C158.985 13.5367 158.228 13.7725 157.573 14.2439C156.885 14.749 156.265 15.2878 155.679 15.9276V14.0755H151.134C151.1 14.2102 151.065 14.3449 151.065 14.4796C151.065 14.7153 151.203 14.8163 151.479 14.85C151.789 14.8837 152.064 14.951 152.34 15.0521C152.546 15.1194 152.718 15.2204 152.856 15.3888C152.994 15.5908 153.097 15.8265 153.097 16.0623C153.166 16.399 153.2 16.7357 153.2 17.0725V24.447C153.166 24.75 152.959 25.0194 152.649 25.1204C152.271 25.2888 151.892 25.3898 151.479 25.4572C151.306 25.4908 151.169 25.6255 151.203 25.7939C151.203 25.8949 151.203 26.0296 151.238 26.1306H158.572C158.606 26.0296 158.606 25.8949 158.606 25.7939C158.606 25.6255 158.503 25.4908 158.331 25.4572C157.642 25.3898 156.988 25.2551 156.368 24.9857C155.955 24.851 155.679 24.4806 155.679 24.0429V19.0592C155.679 18.6214 155.714 18.1837 155.852 17.7459C155.955 17.3419 156.093 16.9714 156.3 16.6347C156.506 16.3653 156.747 16.0959 157.023 15.8939C157.298 15.7255 157.608 15.6245 157.918 15.6245C158.228 15.6245 158.503 15.6918 158.744 15.8602C158.985 15.9949 159.192 16.197 159.399 16.399C159.777 16.2306 160.156 16.0623 160.5 15.8602L161.12 15.4898C161.224 15.4225 161.327 15.3214 161.396 15.1867C161.43 15.0857 161.465 14.951 161.465 14.85C161.465 14.5133 161.293 14.2102 161.052 13.9745Z" fill="#52525c"></path>
  <path fill-rule="evenodd" clip-rule="evenodd" d="M197.587 25.4909C197.174 25.4235 196.761 25.3225 196.347 25.1541C195.968 25.0194 195.796 24.8174 195.796 24.5143V8.01431C195.796 7.61023 195.452 7.2735 195.039 7.2735H191.182C191.147 7.37452 191.147 7.50921 191.147 7.61023C191.147 7.81227 191.251 7.94697 191.526 7.98064C192.043 7.98064 192.525 8.11534 192.938 8.38472C193.179 8.58676 193.317 8.99085 193.317 9.59697V24.5143C193.317 24.8174 193.11 25.0194 192.731 25.1541C192.353 25.3225 191.94 25.4235 191.526 25.4909C191.354 25.5245 191.216 25.6592 191.251 25.8276C191.251 25.8949 191.285 25.996 191.285 26.1303H197.794C197.794 25.996 197.828 25.8949 197.828 25.8276C197.862 25.6592 197.759 25.5245 197.587 25.4909Z" fill="#52525c"></path>
  <path fill-rule="evenodd" clip-rule="evenodd" d="M19.1458 10.8092C22.2105 7.81225 24.9652 5.25306 27.4101 2.96327C26.5492 2.18878 25.6195 1.44796 24.6898 0.77449C23.1746 -0.269388 21.0052 -0.235714 19.6967 0.740816C17.2174 2.62653 14.3593 5.01735 11.4668 7.71123L14.7037 10.8092C15.9433 11.9541 17.9061 11.9541 19.1458 10.8092Z" fill="#66E0F4" opacity=""></path>
  <path fill-rule="evenodd" clip-rule="evenodd" d="M14.6696 10.8092C11.6049 7.81225 8.85014 5.21939 6.40527 2.92959C7.30058 2.1551 8.19588 1.44796 9.12562 0.77449C10.6408 -0.269388 12.8101 -0.235714 14.1187 0.740816C16.9768 2.92959 19.7315 5.25306 22.3486 7.71123L19.1117 10.8092C17.8721 11.9541 15.9093 11.9541 14.6696 10.8092Z" fill="#66E0F4" opacity=""></path>
  <path fill-rule="evenodd" clip-rule="evenodd" d="M11.4668 7.71117L14.6692 10.8091C15.8744 11.9877 17.9405 11.9877 19.1457 10.8091L22.3482 7.71117C20.4887 5.99383 18.6637 4.36167 16.9075 2.94739C15.1858 4.36167 13.3263 5.99383 11.4668 7.71117Z" fill="#00CCEC"></path>
  <path fill-rule="evenodd" clip-rule="evenodd" d="M22.7266 14.2775C25.7569 11.2806 28.4084 8.58668 30.7499 6.19586C31.5419 7.07137 32.265 7.98056 32.9537 8.85607C34.0212 10.3377 33.9868 12.4591 32.9882 13.7724C30.7499 16.5673 28.3753 19.2208 25.8616 21.7799L22.6922 18.6214C21.5214 17.4091 21.5214 15.4897 22.7266 14.2775Z" fill="#59A1FF" opacity=""></path>
  <path fill-rule="evenodd" clip-rule="evenodd" d="M22.7266 18.6553C25.7569 21.6519 28.4084 24.3457 30.7499 26.7369C31.5419 25.861 32.2651 24.9859 32.9538 24.0767C34.0212 22.6287 34.0212 20.6757 32.9882 19.194C31.0598 16.7692 28.6188 13.9784 25.864 11.1498L22.6922 14.3114C21.5214 15.5236 21.5214 17.4427 22.7266 18.6553Z" fill="#59A1FF" opacity=""></path>
  <path fill-rule="evenodd" clip-rule="evenodd" d="M25.8621 21.7799C27.6527 19.9619 29.2949 18.195 30.7412 16.4773C29.2949 14.7937 27.6551 12.9682 25.8645 11.1498L22.7272 14.2774C21.5219 15.456 21.5219 17.4768 22.7272 18.6553L25.8621 21.7799Z" fill="#006FFF"></path>
  <path fill-rule="evenodd" clip-rule="evenodd" d="M19.1458 22.1909C22.2105 25.1875 24.9652 27.7807 27.4101 30.0702C26.5148 30.8447 25.6195 31.5522 24.6898 32.2256C23.1746 33.2692 21.0052 33.2358 19.6967 32.259C17.2174 30.3736 14.3593 27.9824 11.4668 25.2886L14.7037 22.1909C15.9433 21.0461 17.9061 21.0461 19.1458 22.1909Z" fill="#A56AFF" opacity=""></path>
  <path fill-rule="evenodd" clip-rule="evenodd" d="M14.6696 22.1909C11.6049 25.1875 8.85014 27.7807 6.40527 30.0702C7.30058 30.8447 8.19588 31.5522 9.12562 32.2256C10.6408 33.2692 12.8101 33.2358 14.1187 32.259C16.9768 30.0702 19.7315 27.7471 22.3486 25.2886L19.1117 22.1909C17.8721 21.0461 15.9093 21.0461 14.6696 22.1909Z" fill="#A56AFF" opacity=""></path>
  <path fill-rule="evenodd" clip-rule="evenodd" d="M11.4668 25.2886C13.3263 27.0063 15.1858 28.6381 16.9075 30.0524C18.6292 28.6381 20.4887 27.0063 22.3482 25.2886L19.1457 22.191C17.9405 21.0124 15.8744 21.0124 14.6692 22.191L11.4668 25.2886Z" fill="#741AFF"></path>
  <path fill-rule="evenodd" clip-rule="evenodd" d="M11.0536 18.6552C7.98887 21.6518 5.33739 24.3457 2.99583 26.7368C2.20383 25.861 1.4807 24.9858 0.792 24.0766C-0.275478 22.5946 -0.241044 20.4732 0.757565 19.194C2.99583 16.3991 5.37183 13.7052 7.88557 11.146L11.0536 14.3113C12.2243 15.5235 12.2243 17.4426 11.0536 18.6552Z" fill="#A1A1FF" opacity=""></path>
  <path fill-rule="evenodd" clip-rule="evenodd" d="M11.0536 14.2775C7.98887 11.2806 5.37183 8.58668 3.03026 6.19586C2.23826 7.0377 1.4807 7.94688 0.792 8.85607C-0.275478 10.3377 -0.241044 12.4591 0.757565 13.7387C2.68591 16.1632 5.13078 18.9581 7.88557 21.7867L11.0536 18.6214C12.2243 17.4091 12.2243 15.4897 11.0536 14.2775Z" fill="#A1A1FF" opacity=""></path>
  <path fill-rule="evenodd" clip-rule="evenodd" d="M7.88516 21.7868L11.0084 18.6989C12.2136 17.5204 12.2584 15.4562 11.0532 14.2776L7.88964 11.1409C6.13346 12.9593 4.45993 14.7827 3.01367 16.4664C4.45993 18.1501 6.12899 19.9684 7.88516 21.7868Z" fill="#7475FF"></path>
</svg>