<svg className="brand-icon" viewBox="0 0 309 184" width="200" height="100" fill="none" xmlns="http://www.w3.org/2000/svg"><path fillRule="evenodd" clipRule="evenodd" d="M151 92V184H155.5H160V92V0H155.5H151V92ZM0 38.444V50H9H18V92V134H9H0V145.5V157H34H68V145.5V134H60H52V117V100H58.932H65.863L80.491 128.5L95.119 157H115.06H135V145.5V134L126.75 133.999L118.5 133.998L112.761 123.249C109.604 117.337 105.015 108.785 102.562 104.244L98.102 95.989L101.801 94.082C108.111 90.829 113.758 85.193 116.689 79.224C119.198 74.115 119.491 72.48 119.42 64C119.301 49.778 115.039 40.982 104.904 34.044C95.59 27.667 95.089 27.61 45.25 27.232L0 26.888V38.444ZM176 38.5V50H183.5C187.625 50 191.013 50.112 191.029 50.25C191.046 50.388 199.708 74.575 210.279 104L229.5 157.5L243 157.773L256.5 158.047L275.107 104.273L293.715 50.5L301.357 50.208L309 49.916V38.458V27H281.5H254V38.5V50H260.972H267.944L257.472 80.653C251.712 97.512 246.962 111.574 246.915 111.903C246.868 112.231 242.154 98.55 236.439 81.5L226.048 50.5L233.024 50.206L240 49.912V38.456V27H208H176V38.5ZM75.929 51.752C83.355 55.538 86.144 64.604 81.835 70.946C77.892 76.748 74.096 78.279 62.366 78.801L52 79.262V64.631V50L62.25 50.002C70.032 50.003 73.326 50.424 75.929 51.752Z" fill="#52525c"></path></svg>