<svg xmlns="http://www.w3.org/2000/svg" role="img" viewBox="0 0 539 80" width="200" height="100" fill="#52525c">
  <title>The Best Schools Logo</title>
  <mask id="mask0_610_2234" mask-type="luminance" maskUnits="userSpaceOnUse" x="48" y="31" width="13" height="48">
    <path fill-rule="evenodd" clip-rule="evenodd" d="M48.8184 31.9638H60.5009V78.7597H48.8184V31.9638Z" fill="none"></path>
  </mask>
  <g mask="url(#mask0_610_2234)">
    <path fill-rule="evenodd" clip-rule="evenodd" d="M57.9047 34.9891L48.8184 31.9638V78.7606C52.0052 78.7606 54.2645 78.5716 57.9047 77.563V34.9891Z" fill="#52525c"></path>
  </g>
  <mask id="mask1_610_2234" mask-type="luminance" maskUnits="userSpaceOnUse" x="13" y="31" width="36" height="48">
    <path fill-rule="evenodd" clip-rule="evenodd" d="M13.772 31.9649H48.8178V78.7596H13.772V31.9649Z" fill="#52525c"></path>
  </mask>
  <g mask="url(#mask1_610_2234)">
    <path opacity="0.6" fill-rule="evenodd" clip-rule="evenodd" d="M13.772 43.6641C13.772 63.0469 29.4625 78.7598 48.8178 78.7598V31.9649L13.772 43.6641Z" fill="#52525c"></path>
  </g>
  <path fill-rule="evenodd" clip-rule="evenodd" d="M60.501 30.0443V76.7552C63.7804 75.5922 66.8371 73.9593 69.587 71.9296V33.0779L60.501 30.0443Z" fill="#52525c"></path>
  <path opacity="0.6" fill-rule="evenodd" clip-rule="evenodd" d="M69.5869 33.0773V39.3292V71.9308C70.4871 71.2652 71.3526 70.5612 72.1834 69.8152V33.9441L69.5869 33.0773Z" fill="#52525c"></path>
  <path fill-rule="evenodd" clip-rule="evenodd" d="M72.1831 44.0837V69.8154C79.35 63.3898 83.8638 54.0549 83.8638 43.665C83.8638 43.2188 83.8967 32.476 83.8803 32.0371L72.1831 28.1313V44.0837Z" fill="#52525c"></path>
  <path fill-rule="evenodd" clip-rule="evenodd" d="M48.8549 15.4819L48.8184 26.1498L60.5009 30.0447V24.2316L72.1817 28.1302V22.319L83.8806 26.212L83.9372 8.42913C83.9427 6.46159 82.0382 5.05725 80.1666 5.64605L48.8549 15.4819Z" fill="#52525c"></path>
  <g opacity="0.6">
    <mask id="mask2_610_2234" mask-type="luminance" maskUnits="userSpaceOnUse" x="14" y="1" width="35" height="37">
      <path fill-rule="evenodd" clip-rule="evenodd" d="M14.0098 1.04354H48.8182V37.0845H14.0098V1.04354Z" fill="#52525c"></path>
    </mask>
    <g mask="url(#mask2_610_2234)">
      <path opacity="0.94" fill-rule="evenodd" clip-rule="evenodd" d="M48.8182 26.1497L14.0098 37.0845V13.0626C14.0098 11.7917 14.8315 10.669 16.0421 10.2905L45.0476 1.1787C46.9174 0.589895 48.8182 1.98875 48.8182 3.95081V26.1497Z" fill="#52525c"></path>
    </g>
  </g>
  <path fill-rule="evenodd" clip-rule="evenodd" d="M128.37 22.4711C128.796 22.4711 129.163 22.6265 129.473 22.9355C129.782 23.2464 129.937 23.6139 129.937 24.04V26.1319C129.937 26.5598 129.782 26.9273 129.473 27.2363C129.163 27.5472 128.796 27.7008 128.37 27.7008H117.517V61.5897C117.517 62.0158 117.362 62.3833 117.053 62.6924C116.743 63.0032 116.375 63.1586 115.95 63.1586H113.571C113.144 63.1586 112.776 63.0032 112.468 62.6924C112.157 62.3833 112.002 62.0158 112.002 61.5897V27.7008H101.149C100.721 27.7008 100.354 27.5472 100.046 27.2363C99.7354 26.9273 99.582 26.5598 99.582 26.1319V24.04C99.582 23.6139 99.7354 23.2464 100.046 22.9355C100.354 22.6265 100.721 22.4711 101.149 22.4711H128.37Z" fill="#52525c"></path>
  <path fill-rule="evenodd" clip-rule="evenodd" d="M161.338 61.589C161.338 62.0151 161.182 62.3844 160.874 62.6935C160.563 63.0025 160.196 63.1579 159.771 63.1579H157.622C157.196 63.1579 156.829 63.0025 156.521 62.6935C156.21 62.3844 156.055 62.0151 156.055 61.589V46.2418C156.055 43.2612 155.339 41.0322 153.908 39.5602C152.476 38.0864 150.484 37.3513 147.93 37.3513C145.492 37.3513 143.529 38.0864 142.039 39.5602C140.549 41.0322 139.804 43.2612 139.804 46.2418V61.589C139.804 62.0151 139.649 62.3844 139.34 62.6935C139.03 63.0025 138.663 63.1579 138.237 63.1579H136.09C135.663 63.1579 135.296 63.0025 134.987 62.6935C134.677 62.3844 134.521 62.0151 134.521 61.589V23.4578C134.521 23.0336 134.677 22.6642 134.987 22.3534C135.296 22.0462 135.663 21.8889 136.09 21.8889H138.237C138.663 21.8889 139.03 22.0462 139.34 22.3534C139.649 22.6642 139.804 23.0336 139.804 23.4578V36.3035C140.538 35.3362 141.632 34.4347 143.083 33.6027C144.535 32.7689 146.44 32.352 148.801 32.352C150.619 32.352 152.303 32.6519 153.849 33.2516C155.398 33.8551 156.723 34.7054 157.826 35.8098C158.929 36.9161 159.789 38.2802 160.408 39.9095C161.027 41.5351 161.338 43.3582 161.338 45.3732V61.589Z" fill="#52525c"></path>
  <path fill-rule="evenodd" clip-rule="evenodd" d="M171.591 45.314H187.902V45.1385C187.902 42.7759 187.155 40.887 185.665 39.4717C184.177 38.0582 182.192 37.3506 179.718 37.3506C178.593 37.3506 177.549 37.5352 176.583 37.9028C175.615 38.2722 174.764 38.7951 174.028 39.4717C173.294 40.1501 172.714 40.973 172.288 41.9421C171.861 42.9131 171.629 43.9773 171.591 45.1385V45.314ZM166.425 45.1384C166.58 43.3592 167.006 41.6916 167.703 40.141C168.399 38.5922 169.308 37.2354 170.431 36.0706C171.552 34.9094 172.896 34.0006 174.465 33.3405C176.031 32.6822 177.782 32.3512 179.718 32.3512C181.807 32.3512 183.673 32.6932 185.318 33.3698C186.962 34.0463 188.366 35.0264 189.525 36.3046C190.687 37.5828 191.576 39.1334 192.197 40.9547C192.816 42.7759 193.124 44.8111 193.124 47.0566V48.6274C193.124 49.0534 192.969 49.4228 192.66 49.7318C192.35 50.0427 191.983 50.1963 191.558 50.1963H171.591V50.5437C171.667 53.1805 172.471 55.2047 173.999 56.62C175.527 58.0335 177.434 58.7412 179.718 58.7412C181.845 58.7412 183.441 58.4413 184.506 57.8415C185.568 57.2381 186.43 56.5707 187.088 55.8338C187.398 55.5247 187.668 55.3108 187.902 55.1938C188.134 55.0804 188.481 55.0219 188.945 55.0219H190.687C191.112 55.0219 191.499 55.1773 191.848 55.4845C192.197 55.7954 192.33 56.1647 192.253 56.5908C192.138 57.2875 191.81 58.0536 191.267 58.8857C190.725 59.7195 189.942 60.4948 188.917 61.2116C187.891 61.9284 186.615 62.5282 185.086 63.0127C183.556 63.4973 181.767 63.7387 179.718 63.7387C177.782 63.7387 176.041 63.4004 174.492 62.722C172.945 62.0436 171.6 61.1165 170.459 59.9316C169.317 58.7503 168.399 57.3551 167.703 55.7478C167.006 54.1387 166.58 52.3851 166.425 50.487C166.231 48.7042 166.231 46.9231 166.425 45.1384Z" fill="#52525c"></path>
  <path fill-rule="evenodd" clip-rule="evenodd" d="M212.027 55.8926H222.764C224.891 55.8926 226.45 55.4373 227.436 54.5267C228.422 53.6179 228.917 52.4257 228.917 50.9518C228.917 49.4798 228.404 48.2785 227.378 47.3477C226.354 46.417 224.814 45.9525 222.764 45.9525H212.027V55.8926ZM228.105 34.2113C228.105 32.7393 227.639 31.6257 226.711 30.8705C225.782 30.1134 224.312 29.7367 222.3 29.7367H212.027V38.6876H222.3C224.312 38.6876 225.782 38.3091 226.711 37.5539C227.639 36.7987 228.105 35.6851 228.105 34.2113ZM205.758 63.1594C205.331 63.1594 204.964 63.0039 204.656 62.6931C204.345 62.3841 204.19 62.0165 204.19 61.5886V24.0407C204.19 23.6147 204.345 23.2471 204.656 22.9363C204.964 22.6273 205.331 22.4718 205.758 22.4718H222.881C225.357 22.4718 227.427 22.8485 229.091 23.6037C230.754 24.3589 232.089 25.3098 233.097 26.4526C234.101 27.5955 234.828 28.8353 235.272 30.1719C235.717 31.5105 235.94 32.7594 235.94 33.9205C235.94 35.0835 235.785 36.1203 235.476 37.0309C235.166 37.9415 234.788 38.7169 234.344 39.3569C233.898 39.9969 233.453 40.529 233.009 40.955C232.564 41.3811 232.206 41.6718 231.936 41.8273C233.135 42.6391 234.236 43.793 235.244 45.2833C236.25 46.7772 236.752 48.6661 236.752 50.9518C236.752 52.4257 236.482 53.8867 235.94 55.3404C235.398 56.7941 234.605 58.1015 233.561 59.2645C232.516 60.4257 231.209 61.3674 229.642 62.0842C228.075 62.801 226.266 63.1594 224.215 63.1594H205.758Z" fill="#52525c"></path>
  <path fill-rule="evenodd" clip-rule="evenodd" d="M254.261 39.3265C253.138 39.3265 252.181 39.4929 251.389 39.822C250.595 40.1512 249.926 40.5772 249.386 41.1002C248.843 41.6232 248.427 42.2047 248.137 42.8428C247.846 43.4828 247.664 44.0918 247.585 44.6751H260.703C260.626 44.0918 260.48 43.4828 260.268 42.8428C260.055 42.2047 259.706 41.6232 259.224 41.1002C258.74 40.5772 258.101 40.1512 257.309 39.822C256.514 39.4929 255.499 39.3265 254.261 39.3265ZM240.041 48.047C240.041 45.8765 240.369 43.8303 241.027 41.9139C241.686 39.9958 242.633 38.3299 243.871 36.9165C245.109 35.4993 246.609 34.3857 248.369 33.572C250.131 32.7583 252.094 32.3523 254.261 32.3523C256.429 32.3523 258.392 32.7491 260.154 33.5427C261.912 34.3382 263.411 35.4024 264.651 36.7409C265.889 38.0776 266.848 39.6465 267.523 41.4495C268.201 43.2506 268.54 45.1395 268.54 47.1162V49.7311C268.54 50.159 268.383 50.5265 268.075 50.8355C267.766 51.1464 267.397 51.3018 266.972 51.3018H247.585C247.585 52.1923 247.77 52.9768 248.137 53.6552C248.506 54.3336 248.999 54.9059 249.618 55.3686C250.237 55.833 250.953 56.1823 251.765 56.4163C252.578 56.6486 253.41 56.7638 254.261 56.7638C255.499 56.7638 256.505 56.6394 257.28 56.3871C258.054 56.1347 258.691 55.8166 259.195 55.4289C259.62 55.1181 259.967 54.9059 260.239 54.7871C260.51 54.6737 260.878 54.6134 261.342 54.6134H265.986C266.411 54.6134 266.787 54.7688 267.118 55.0797C267.447 55.3887 267.591 55.7562 267.552 56.1823C267.514 56.7272 267.213 57.4221 266.654 58.2742C266.092 59.1281 265.25 59.9601 264.129 60.7738C263.006 61.5894 261.622 62.2861 259.978 62.8675C258.333 63.4472 256.429 63.7398 254.261 63.7398C252.094 63.7398 250.131 63.3612 248.369 62.6061C246.609 61.849 245.109 60.7738 243.871 59.3804C242.633 57.9853 241.686 56.3286 241.027 54.4104C240.369 52.4922 240.041 50.3693 240.041 48.047Z" fill="#52525c"></path>
  <path fill-rule="evenodd" clip-rule="evenodd" d="M290.325 54.498C290.325 54.0719 290.189 53.7226 289.917 53.452C289.647 53.1796 289.172 52.929 288.497 52.6968C287.819 52.4628 286.919 52.2305 285.798 51.9983C284.673 51.7661 283.243 51.457 281.501 51.0676C279.798 50.6817 278.386 50.1953 277.265 49.6157C276.142 49.0342 275.242 48.3576 274.566 47.5823C273.889 46.8052 273.414 45.9238 273.144 44.9364C272.872 43.9471 272.737 42.8737 272.737 41.7089C272.737 40.5478 273.009 39.4049 273.549 38.2804C274.092 37.1576 274.875 36.1592 275.901 35.287C276.926 34.4166 278.175 33.7089 279.644 33.164C281.114 32.6246 282.798 32.3521 284.695 32.3521C286.59 32.3521 288.283 32.5661 289.773 32.9903C291.263 33.4182 292.53 33.9796 293.575 34.6781C294.621 35.3748 295.432 36.1793 296.012 37.09C296.593 38.0006 296.922 38.9204 296.998 39.8493C297.039 40.2772 296.893 40.6447 296.564 40.9556C296.233 41.2646 295.857 41.42 295.432 41.42H290.964C290.381 41.42 289.947 41.3121 289.658 41.1C289.368 40.8879 289.048 40.6447 288.699 40.3722C288.351 40.1016 287.887 39.8602 287.306 39.6463C286.726 39.4342 285.856 39.3263 284.695 39.3263C283.534 39.3263 282.508 39.5018 281.618 39.8493C280.727 40.1985 280.284 40.8184 280.284 41.7089C280.284 42.1368 280.389 42.4952 280.603 42.786C280.815 43.0767 281.222 43.3364 281.821 43.5686C282.422 43.8026 283.253 44.044 284.317 44.2964C285.382 44.5505 286.764 44.8504 288.466 45.196C291.911 45.9329 294.338 47.0868 295.751 48.6557C297.163 50.2246 297.869 52.1738 297.869 54.498C297.869 55.6609 297.581 56.7946 296.998 57.8973C296.42 59.0017 295.578 59.991 294.473 60.8614C293.372 61.7336 292.017 62.4321 290.412 62.9551C288.805 63.4781 286.996 63.7396 284.984 63.7396C282.933 63.7396 281.125 63.4982 279.559 63.0118C277.99 62.529 276.666 61.9 275.582 61.1229C274.499 60.3476 273.666 59.4772 273.087 58.508C272.505 57.5407 272.194 56.5917 272.158 55.6609C272.118 55.233 272.262 54.8655 272.593 54.5546C272.921 54.2456 273.299 54.0902 273.725 54.0902H278.193C278.775 54.0902 279.21 54.2273 279.498 54.498C279.789 54.7686 280.117 55.0794 280.486 55.4287C280.853 55.7761 281.366 56.087 282.024 56.3576C282.681 56.6282 283.667 56.7636 284.984 56.7636C285.566 56.7636 286.165 56.727 286.784 56.6484C287.401 56.5716 287.975 56.4436 288.497 56.2717C289.019 56.0961 289.454 55.8639 289.802 55.5732C290.149 55.2824 290.325 54.924 290.325 54.498Z" fill="#52525c"></path>
  <path fill-rule="evenodd" clip-rule="evenodd" d="M343.992 21.8891C346.353 21.8891 348.433 22.2584 350.232 22.9935C352.03 23.7304 353.559 24.6319 354.818 25.698C356.075 26.7622 357.033 27.9051 357.691 29.1265C358.348 30.3462 358.697 31.4415 358.735 32.4107C358.774 32.7581 358.657 33.0598 358.388 33.3121C358.114 33.5645 357.806 33.6888 357.459 33.6888H355.078C354.652 33.6888 354.315 33.612 354.064 33.4566C353.811 33.3012 353.549 32.9537 353.279 32.4107C353.084 32.023 352.766 31.5275 352.322 30.9277C351.875 30.3279 351.276 29.7464 350.522 29.1851C349.768 28.6219 348.848 28.1373 347.765 27.7313C346.682 27.3254 345.424 27.1206 343.992 27.1206C342.908 27.1206 341.874 27.2468 340.888 27.4991C339.9 27.7515 339.02 28.1281 338.248 28.6328C337.472 29.1357 336.855 29.7647 336.389 30.5217C335.925 31.2769 335.693 32.1583 335.693 33.1659C335.693 34.1734 335.914 35.0255 336.36 35.724C336.803 36.4207 337.521 37.0516 338.507 37.6111C339.495 38.1743 340.742 38.6881 342.252 39.1526C343.76 39.6171 345.597 40.1419 347.765 40.7215C349.971 41.303 351.839 41.943 353.367 42.6397C354.895 43.3364 356.142 44.1227 357.112 44.9949C358.078 45.8653 358.785 46.8728 359.23 48.0157C359.674 49.1604 359.897 50.4495 359.897 51.8813C359.897 53.6257 359.519 55.2239 358.764 56.6758C358.01 58.1295 356.957 59.3803 355.6 60.4262C354.245 61.4721 352.613 62.2859 350.697 62.8673C348.782 63.4488 346.642 63.7396 344.283 63.7396C342.039 63.7396 339.968 63.4104 338.073 62.7521C336.177 62.092 334.55 61.2417 333.197 60.194C331.842 59.148 330.769 57.9851 329.974 56.7069C329.182 55.4287 328.766 54.1688 328.729 52.9291C328.729 52.5798 328.853 52.2781 329.105 52.0276C329.355 51.7771 329.655 51.6491 330.005 51.6491H332.385C332.77 51.6491 333.11 51.7277 333.4 51.8813C333.69 52.0367 333.951 52.386 334.183 52.9291C334.415 53.4703 334.773 54.0628 335.257 54.7009C335.741 55.3409 336.389 55.9425 337.202 56.5021C338.016 57.0653 339.002 57.5407 340.161 57.9265C341.323 58.3142 342.696 58.508 344.283 58.508C345.636 58.508 346.923 58.3526 348.143 58.0417C349.361 57.7345 350.434 57.2865 351.364 56.7069C352.293 56.1272 353.027 55.4287 353.57 54.6132C354.112 53.7995 354.382 52.8907 354.382 51.8813C354.382 50.8756 354.073 50.0125 353.454 49.2957C352.834 48.5789 351.944 47.9297 350.785 47.3483C349.622 46.7668 348.201 46.2347 346.518 45.7501C344.834 45.2655 342.928 44.7535 340.801 44.2086C338.865 43.7076 337.222 43.0968 335.867 42.3782C334.512 41.6614 333.409 40.8385 332.558 39.9078C331.705 38.9771 331.097 37.9531 330.73 36.8267C330.361 35.7039 330.179 34.4843 330.179 33.1659C330.179 31.7323 330.469 30.3371 331.05 28.9803C331.629 27.6253 332.491 26.4239 333.632 25.378C334.773 24.3302 336.205 23.4872 337.928 22.8491C339.648 22.2091 341.671 21.8891 343.992 21.8891Z" fill="#52525c"></path>
  <path fill-rule="evenodd" clip-rule="evenodd" d="M369.667 50.0801C369.82 51.6308 370.162 52.9473 370.684 54.0335C371.206 55.1178 371.843 56.0084 372.597 56.7069C373.353 57.4036 374.193 57.9174 375.123 58.2465C376.052 58.5757 377 58.7402 377.968 58.7402C379.823 58.7402 381.411 58.3928 382.726 57.6943C384.041 56.9958 385.067 55.8328 385.803 54.2072C386.071 53.5873 386.354 53.1704 386.645 52.9565C386.935 52.7444 387.291 52.6365 387.718 52.6365H389.458C389.884 52.6365 390.262 52.7919 390.59 53.1009C390.919 53.4118 391.065 53.7812 391.025 54.2072C390.987 55.138 390.687 56.1528 390.127 57.2591C389.564 58.3617 388.733 59.3894 387.631 60.3384C386.528 61.2893 385.173 62.092 383.568 62.7521C381.961 63.4104 380.095 63.7396 377.968 63.7396C375.838 63.7396 373.952 63.3903 372.307 62.6918C370.662 61.9951 369.269 61.0461 368.127 59.8465C366.986 58.6452 366.097 57.228 365.458 55.6024C364.821 53.975 364.461 52.2305 364.384 50.369C364.346 49.751 364.317 48.9848 364.298 48.0742C364.278 47.1636 364.306 46.3809 364.384 45.7208C364.538 43.8612 364.936 42.1167 365.575 40.4893C366.212 38.8618 367.094 37.4484 368.215 36.247C369.336 35.0456 370.711 34.0966 372.336 33.3981C373.963 32.7014 375.838 32.3521 377.968 32.3521C380.095 32.3521 381.961 32.6813 383.568 33.3396C385.173 33.9997 386.528 34.8042 387.631 35.7514C388.733 36.7023 389.564 37.73 390.127 38.8326C390.687 39.937 390.987 40.9556 391.025 41.8845C391.065 42.3105 390.919 42.6781 390.59 42.9889C390.262 43.2998 389.884 43.4552 389.458 43.4552H387.718C387.291 43.4552 386.935 43.3473 386.645 43.1352C386.354 42.9213 386.071 42.5044 385.803 41.8845C385.067 40.257 384.041 39.0959 382.726 38.3974C381.411 37.6989 379.823 37.3514 377.968 37.3514C377 37.3514 376.041 37.516 375.093 37.8452C374.144 38.1743 373.293 38.6881 372.539 39.3848C371.785 40.0833 371.148 40.9738 370.623 42.0582C370.101 43.1444 369.782 44.4628 369.667 46.0097C369.552 47.4452 369.552 48.802 369.667 50.0801Z" fill="#52525c"></path>
  <path fill-rule="evenodd" clip-rule="evenodd" d="M422.871 61.589C422.871 62.0151 422.716 62.3844 422.408 62.6935C422.097 63.0025 421.73 63.1579 421.305 63.1579H419.157C418.73 63.1579 418.363 63.0025 418.053 62.6935C417.742 62.3844 417.589 62.0151 417.589 61.589V46.2418C417.589 43.2612 416.873 41.0322 415.443 39.5602C414.008 38.0864 412.018 37.3513 409.463 37.3513C407.026 37.3513 405.061 38.0864 403.573 39.5602C402.083 41.0322 401.338 43.2612 401.338 46.2418V61.589C401.338 62.0151 401.182 62.3844 400.874 62.6935C400.563 63.0025 400.196 63.1579 399.771 63.1579H397.624C397.196 63.1579 396.829 63.0025 396.519 62.6935C396.209 62.3844 396.055 62.0151 396.055 61.589V23.4578C396.055 23.0336 396.209 22.6642 396.519 22.3534C396.829 22.0462 397.196 21.8889 397.624 21.8889H399.771C400.196 21.8889 400.563 22.0462 400.874 22.3534C401.182 22.6642 401.338 23.0336 401.338 23.4578V36.3035C402.072 35.3362 403.166 34.4347 404.617 33.6027C406.069 32.7689 407.973 32.352 410.334 32.352C412.153 32.352 413.836 32.6519 415.383 33.2516C416.931 33.8551 418.257 34.7054 419.36 35.8098C420.463 36.9161 421.323 38.2802 421.942 39.9095C422.561 41.5351 422.871 43.3582 422.871 45.3732V61.589Z" fill="#52525c"></path>
  <path fill-rule="evenodd" clip-rule="evenodd" d="M450.19 50.4872C450.266 49.8289 450.305 49.0243 450.305 48.0753C450.305 47.1245 450.266 46.3016 450.19 45.6031C450.075 44.4419 449.823 43.3594 449.435 42.3501C449.048 41.3425 448.506 40.4703 447.81 39.7334C447.113 38.9983 446.262 38.4168 445.256 37.9907C444.25 37.5647 443.07 37.3507 441.715 37.3507C440.36 37.3507 439.181 37.5647 438.175 37.9907C437.169 38.4168 436.318 38.9983 435.62 39.7334C434.924 40.4703 434.382 41.3425 433.997 42.3501C433.608 43.3594 433.358 44.4419 433.243 45.6031C433.164 46.3016 433.124 47.1245 433.124 48.0753C433.124 49.0243 433.164 49.8289 433.243 50.4872C433.358 51.6502 433.608 52.7345 433.997 53.7402C434.382 54.7496 434.924 55.6237 435.62 56.3569C436.318 57.0938 437.169 57.6753 438.175 58.1014C439.181 58.5274 440.36 58.7414 441.715 58.7414C443.07 58.7414 444.25 58.5274 445.256 58.1014C446.262 57.6753 447.113 57.0938 447.81 56.3569C448.506 55.6237 449.048 54.7496 449.435 53.7402C449.823 52.7345 450.075 51.6502 450.19 50.4872ZM441.715 32.3514C443.806 32.3514 445.663 32.6714 447.288 33.3114C448.913 33.9514 450.305 34.831 451.466 35.9555C452.627 37.0801 453.546 38.4461 454.223 40.0534C454.901 41.6625 455.317 43.4161 455.472 45.3142C455.509 45.6616 455.53 46.0785 455.53 46.5631V48.0753V49.5875C455.53 50.0703 455.509 50.4671 455.472 50.7779C455.277 52.7162 454.853 54.479 454.194 56.068C453.537 57.657 452.627 59.012 451.466 60.1347C450.305 61.2611 448.913 62.1407 447.288 62.7807C445.663 63.4189 443.806 63.7389 441.715 63.7389C439.626 63.7389 437.767 63.4189 436.144 62.7807C434.519 62.1407 433.124 61.2611 431.964 60.1347C430.803 59.012 429.885 57.657 429.207 56.068C428.53 54.479 428.114 52.7162 427.96 50.7779C427.922 50.4671 427.891 50.0703 427.872 49.5875C427.854 49.1011 427.843 48.5983 427.843 48.0753C427.843 47.5523 427.854 47.0477 427.872 46.5631C427.891 46.0785 427.922 45.6616 427.96 45.3142C428.114 43.4161 428.53 41.6625 429.207 40.0534C429.885 38.4461 430.803 37.0801 431.964 35.9555C433.124 34.831 434.519 33.9514 436.144 33.3114C437.767 32.6714 439.626 32.3514 441.715 32.3514Z" fill="#52525c"></path>
  <path fill-rule="evenodd" clip-rule="evenodd" d="M481.744 50.4872C481.821 49.8289 481.859 49.0243 481.859 48.0753C481.859 47.1245 481.821 46.3016 481.744 45.6031C481.629 44.4419 481.377 43.3594 480.99 42.3501C480.603 41.3425 480.061 40.4703 479.365 39.7334C478.667 38.9983 477.817 38.4168 476.81 37.9907C475.804 37.5647 474.625 37.3507 473.27 37.3507C471.915 37.3507 470.735 37.5647 469.729 37.9907C468.723 38.4168 467.872 38.9983 467.175 39.7334C466.481 40.4703 465.937 41.3425 465.551 42.3501C465.164 43.3594 464.912 44.4419 464.797 45.6031C464.719 46.3016 464.679 47.1245 464.679 48.0753C464.679 49.0243 464.719 49.8289 464.797 50.4872C464.912 51.6502 465.164 52.7345 465.551 53.7402C465.937 54.7496 466.481 55.6237 467.175 56.3569C467.872 57.0938 468.723 57.6753 469.729 58.1014C470.735 58.5274 471.915 58.7414 473.27 58.7414C474.625 58.7414 475.804 58.5274 476.81 58.1014C477.817 57.6753 478.667 57.0938 479.365 56.3569C480.061 55.6237 480.603 54.7496 480.99 53.7402C481.377 52.7345 481.629 51.6502 481.744 50.4872ZM473.27 32.3514C475.361 32.3514 477.218 32.6714 478.843 33.3114C480.468 33.9514 481.859 34.831 483.021 35.9555C484.182 37.0801 485.1 38.4461 485.778 40.0534C486.455 41.6625 486.872 43.4161 487.027 45.3142C487.063 45.6616 487.085 46.0785 487.085 46.5631V48.0753V49.5875C487.085 50.0703 487.063 50.4671 487.027 50.7779C486.831 52.7162 486.408 54.479 485.749 56.068C485.091 57.657 484.182 59.012 483.021 60.1347C481.859 61.2611 480.468 62.1407 478.843 62.7807C477.218 63.4189 475.361 63.7389 473.27 63.7389C471.181 63.7389 469.322 63.4189 467.699 62.7807C466.074 62.1407 464.679 61.2611 463.519 60.1347C462.358 59.012 461.439 57.657 460.762 56.068C460.085 54.479 459.668 52.7162 459.515 50.7779C459.476 50.4671 459.445 50.0703 459.427 49.5875C459.409 49.1011 459.398 48.5983 459.398 48.0753C459.398 47.5523 459.409 47.0477 459.427 46.5631C459.445 46.0785 459.476 45.6616 459.515 45.3142C459.668 43.4161 460.085 41.6625 460.762 40.0534C461.439 38.4461 462.358 37.0801 463.519 35.9555C464.679 34.831 466.074 33.9514 467.699 33.3114C469.322 32.6714 471.181 32.3514 473.27 32.3514Z" fill="#52525c"></path>
  <path fill-rule="evenodd" clip-rule="evenodd" d="M496.777 61.589C496.777 62.0151 496.621 62.3844 496.313 62.6935C496.002 63.0025 495.635 63.1579 495.212 63.1579H493.063C492.635 63.1579 492.268 63.0025 491.96 62.6935C491.649 62.3844 491.494 62.0151 491.494 61.589V23.4578C491.494 23.0336 491.649 22.6642 491.96 22.3534C492.268 22.0462 492.635 21.8889 493.063 21.8889H495.212C495.635 21.8889 496.002 22.0462 496.313 22.3534C496.621 22.6642 496.777 23.0336 496.777 23.4578V61.589Z" fill="#52525c"></path>
  <mask id="mask3_610_2234" mask-type="luminance" maskUnits="userSpaceOnUse" x="500" y="32" width="26" height="32">
    <path fill-rule="evenodd" clip-rule="evenodd" d="M500.774 32.3507H525.044V63.74H500.774V32.3507Z" fill="#52525c"></path>
  </mask>
  <g mask="url(#mask3_610_2234)">
    <path fill-rule="evenodd" clip-rule="evenodd" d="M519.762 54.7873C519.762 54.0522 519.559 53.4433 519.152 52.9569C518.745 52.4723 518.137 52.0554 517.324 51.7061C516.512 51.3587 515.474 51.0295 514.22 50.7187C512.96 50.4097 511.501 50.0805 509.836 49.7313C506.702 49.073 504.506 47.9777 503.249 46.4471C501.991 44.9185 501.363 43.1246 501.363 41.0711C501.363 39.9082 501.595 38.8037 502.059 37.7578C502.525 36.7118 503.218 35.7811 504.148 34.9674C505.077 34.1537 506.248 33.5137 507.659 33.0492C509.073 32.5847 510.727 32.3507 512.622 32.3507C514.518 32.3507 516.172 32.5665 517.585 32.9907C518.997 33.4186 520.187 33.9598 521.155 34.6181C522.121 35.2801 522.857 35.9841 523.361 36.7411C523.863 37.4963 524.135 38.2222 524.173 38.9207C524.212 39.3468 524.066 39.7143 523.739 40.0234C523.408 40.3342 523.03 40.4897 522.607 40.4897H520.691C520.459 40.4897 520.178 40.4421 519.849 40.3434C519.519 40.2465 519.219 40.0234 518.949 39.6759C518.445 39.0177 517.7 38.4654 516.714 38.0193C515.728 37.5731 514.364 37.35 512.622 37.35C510.842 37.35 509.401 37.681 508.298 38.3374C507.195 38.9994 506.644 39.9082 506.644 41.0711C506.644 41.8081 506.797 42.3987 507.108 42.843C507.418 43.2892 507.922 43.6787 508.616 44.006C509.314 44.3351 510.232 44.6369 511.375 44.9075C512.514 45.1781 513.939 45.5091 515.641 45.8949C517.421 46.2844 518.909 46.7763 520.109 47.3761C521.31 47.9777 522.276 48.6542 523.012 49.4131C523.748 50.1683 524.27 51.0021 524.581 51.9109C524.889 52.8234 525.044 53.7815 525.044 54.7873C525.044 55.9521 524.761 57.0748 524.203 58.161C523.64 59.2453 522.839 60.1944 521.792 61.0062C520.748 61.8218 519.481 62.4819 517.991 62.9829C516.502 63.4876 514.808 63.74 512.913 63.74C511.017 63.74 509.334 63.5077 507.862 63.0414C506.392 62.577 505.134 62.0065 504.091 61.3262C503.047 60.6497 502.242 59.9146 501.683 59.1192C501.12 58.3256 500.821 57.5777 500.781 56.881C500.742 56.4549 500.878 56.0874 501.188 55.7765C501.497 55.4675 501.885 55.3102 502.349 55.3102H504.438C504.67 55.3102 504.942 55.3413 505.253 55.3998C505.561 55.4547 505.851 55.6796 506.122 56.0673C506.741 56.9212 507.592 57.5777 508.676 58.0421C509.757 58.5084 511.172 58.7406 512.913 58.7406C513.763 58.7406 514.605 58.6437 515.438 58.4499C516.269 58.2561 517.005 57.9854 517.644 57.6362C518.281 57.2869 518.794 56.8718 519.181 56.3873C519.568 55.9027 519.762 55.3687 519.762 54.7873Z" fill="#52525c"></path>
  </g>
  <path fill-rule="evenodd" clip-rule="evenodd" d="M318.436 56.1819H314.895C313.153 56.1819 311.963 55.8253 311.324 55.1085C310.686 54.3917 310.367 53.4317 310.367 52.2303V39.9094H317.855C318.279 39.9094 318.647 39.754 318.958 39.4431C319.266 39.1323 319.422 38.7666 319.422 38.3387V34.5042C319.422 34.0781 319.266 33.7087 318.958 33.3979C318.647 33.0889 318.279 32.9334 317.855 32.9334H310.367V23.4578V21.3915C310.367 20.4004 309.397 19.7001 308.457 20.0127L303.815 21.5579C303.222 21.7554 302.822 22.3131 302.822 22.9385V52.4059C302.822 56.0484 303.797 58.7492 305.752 60.5138C307.706 62.2765 310.502 63.1579 314.139 63.1579H318.436C318.859 63.1579 319.228 63.0025 319.539 62.6934C319.845 62.3844 320.002 62.015 320.002 61.589V57.7526C320.002 57.3266 319.845 56.959 319.539 56.6482C319.228 56.3391 318.859 56.1819 318.436 56.1819Z" fill="#52525c"></path>
  <path opacity="0.6" fill-rule="evenodd" clip-rule="evenodd" d="M57.9048 77.5623C58.7849 77.3264 59.6504 77.0558 60.5013 76.7559V35.8562L57.9048 34.9877V77.5623Z" fill="#52525c"></path>
</svg>